<svg width="40" height="40" viewBox="0 0 40 40" fill="none" xmlns="http://www.w3.org/2000/svg">
<circle cx="20" cy="20" r="19.5" fill="#C8CFEF" stroke="#8593DB"/>
<path d="M23.0968 16.4576V18.2757H18.3548C17.5164 18.2757 16.7123 18.6587 16.1195 19.3406C15.5266 20.0225 15.1936 20.9474 15.1936 21.9117V25.5478C15.1936 26.5121 15.5266 27.4369 16.1195 28.1188C16.7123 28.8007 17.5164 29.1838 18.3548 29.1838H26.2581C27.0965 29.1838 27.9006 28.8007 28.4934 28.1188C29.0863 27.4369 29.4194 26.5121 29.4194 25.5478V21.9117C29.4193 21.2735 29.2733 20.6465 28.9958 20.0937C28.7183 19.541 28.3193 19.082 27.8387 18.7629V16.7667C29.6802 17.5157 31 19.5356 31 21.9099V25.5459C31 26.9925 30.5004 28.3797 29.6111 29.4026C28.7218 30.4254 27.5157 31 26.2581 31H18.3548C17.0972 31 15.8911 30.4254 15.0018 29.4026C14.1125 28.3797 13.6129 26.9925 13.6129 25.5459V21.9117C13.6129 20.4652 14.1125 19.0779 15.0018 18.0551C15.8911 17.0323 17.0972 16.4576 18.3548 16.4576H23.0968Z" fill="#364BB5"/>
<path d="M16.9032 23.5424V21.7246H21.6452C22.4836 21.7246 23.2877 21.3415 23.8805 20.6597C24.4734 19.9779 24.8065 19.0532 24.8065 18.089V14.4534C24.8065 13.4892 24.4734 12.5644 23.8805 11.8826C23.2877 11.2008 22.4836 10.8178 21.6452 10.8178H13.7419C12.9035 10.8178 12.0994 11.2008 11.5066 11.8826C10.9137 12.5644 10.5806 13.4892 10.5806 14.4534V18.089C10.5807 18.7271 10.7267 19.3541 11.0042 19.9067C11.2817 20.4594 11.6807 20.9183 12.1613 21.2374V23.2333C11.2365 22.857 10.4359 22.1603 9.86973 21.239C9.30358 20.3176 8.99972 19.2171 9 18.089V14.4534C9 13.0071 9.4996 11.62 10.3889 10.5973C11.2782 9.57455 12.4843 9 13.7419 9H21.6452C22.9028 9 24.1089 9.57455 24.9982 10.5973C25.8875 11.62 26.3871 13.0071 26.3871 14.4534V18.089C26.3871 19.5353 25.8875 20.9224 24.9982 21.9451C24.1089 22.9678 22.9028 23.5424 21.6452 23.5424H16.9032Z" fill="#364BB5"/>
</svg>
