<svg width="24" height="24" viewBox="0 0 24 24" fill="none" xmlns="http://www.w3.org/2000/svg">
<path d="M15.3783 8.13562V10.1189H10.2053C9.29065 10.1189 8.41346 10.5368 7.76671 11.2807C7.11995 12.0246 6.75661 13.0335 6.75661 14.0855V18.0521C6.75661 19.1041 7.11995 20.113 7.76671 20.8569C8.41346 21.6008 9.29065 22.0187 10.2053 22.0187H18.827C19.7416 22.0187 20.6188 21.6008 21.2656 20.8569C21.9123 20.113 22.2757 19.1041 22.2757 18.0521V14.0855C22.2757 13.3893 22.1163 12.7053 21.8136 12.1023C21.5109 11.4993 21.0756 10.9986 20.5513 10.6504V8.47278C22.5602 9.2899 24 11.4933 24 14.0835V18.0501C24 19.6281 23.455 21.1415 22.4849 22.2573C21.5147 23.3732 20.199 24 18.827 24H10.2053C8.83332 24 7.51754 23.3732 6.54742 22.2573C5.57729 21.1415 5.03227 19.6281 5.03227 18.0501V14.0855C5.03227 12.5075 5.57729 10.9941 6.54742 9.8783C7.51754 8.76248 8.83332 8.13562 10.2053 8.13562H15.3783Z" fill="#364BB5"/>
<path d="M8.6217 15.8644V13.8814H13.7947C14.7094 13.8814 15.5866 13.4635 16.2333 12.7197C16.8801 11.9759 17.2434 10.9671 17.2434 9.91525V5.94915C17.2434 4.89728 16.8801 3.88848 16.2333 3.1447C15.5866 2.40091 14.7094 1.98305 13.7947 1.98305H5.17302C4.25837 1.98305 3.38119 2.40091 2.73444 3.1447C2.08768 3.88848 1.72434 4.89728 1.72434 5.94915V9.91525C1.72436 10.6114 1.88371 11.2953 2.1864 11.8982C2.48908 12.5012 2.92443 13.0018 3.44868 13.3499V15.5273C2.43981 15.1168 1.56643 14.3566 0.948801 13.3516C0.331175 12.3465 -0.000308533 11.146 2.15483e-07 9.91525V5.94915C2.15483e-07 4.37134 0.545013 2.85815 1.51514 1.74247C2.48527 0.626784 3.80105 0 5.17302 0H13.7947C15.1667 0 16.4825 0.626784 17.4526 1.74247C18.4227 2.85815 18.9677 4.37134 18.9677 5.94915V9.91525C18.9677 11.4931 18.4227 13.0063 17.4526 14.1219C16.4825 15.2376 15.1667 15.8644 13.7947 15.8644H8.6217Z" fill="#364BB5"/>
</svg>
